<svg width="200" height="35" viewBox="0 0 200 35" fill="none" xmlns="http://www.w3.org/2000/svg">
<mask id="mask0_812_40" style="mask-type:luminance" maskUnits="userSpaceOnUse" x="0" y="0" width="200" height="35">
<path d="M200 0H0V34.9767H200V0Z" fill="white"/>
</mask>
<g mask="url(#mask0_812_40)">
<path d="M26.303 7.24023C20.1789 7.24023 18.0059 12.034 17.8566 12.3855C17.7072 12.034 15.5556 7.24023 9.41375 7.24023C6.91424 7.27425 4.52798 8.27586 2.76774 10.0299C1.00749 11.7838 0.0137332 14.1503 0 16.6205C0 26.7284 9.81558 34.9207 17.8566 34.9207C25.8976 34.9207 35.7132 26.7284 35.7132 16.6205C35.6994 14.1508 34.7062 11.785 32.9467 10.031C31.1872 8.27717 28.8018 7.27516 26.303 7.24023ZM27.9176 17.0072C27.9176 19.6441 26.8576 22.173 24.9707 24.0376C23.084 25.9023 20.5249 26.9498 17.8566 26.9498C15.1882 26.9498 12.6292 25.9023 10.7424 24.0376C8.85558 22.173 7.79558 19.6441 7.79558 17.0072V16.7225H11.3519V17.0072C11.3519 18.7129 12.0377 20.3488 13.2582 21.5549C14.4787 22.7612 16.1341 23.4388 17.8602 23.4388C19.5862 23.4388 21.2416 22.7612 22.4621 21.5549C23.6826 20.3488 24.3683 18.7129 24.3683 17.0072V16.7225H27.9247L27.9176 17.0072Z" fill="#6E3EFF"/>
<path d="M185.686 7.25C177.414 7.25 171.371 13.1509 171.371 21.1113C171.371 29.0717 177.417 34.9762 185.686 34.9762C193.954 34.9762 200 29.0753 200 21.1113C200 13.0104 193.958 7.25 185.686 7.25ZM185.686 29.36C181.151 29.36 178.061 25.9474 178.061 21.1113C178.061 16.2753 181.151 12.8662 185.686 12.8662C190.22 12.8662 193.311 16.2789 193.311 21.1113C193.311 25.9438 190.217 29.36 185.686 29.36Z" fill="#6E3EFF"/>
<path d="M153.898 7.25C145.626 7.25 139.584 13.1509 139.584 21.1113C139.584 29.0717 145.63 34.9762 153.898 34.9762C162.167 34.9762 168.216 29.0753 168.216 21.1113C168.206 13.0104 162.163 7.25 153.898 7.25ZM153.898 29.36C149.367 29.36 146.274 25.9474 146.274 21.1113C146.274 16.2753 149.367 12.8662 153.898 12.8662C158.429 12.8662 161.523 16.2789 161.523 21.1113C161.523 25.9438 158.422 29.36 153.898 29.36Z" fill="#6E3EFF"/>
<path d="M61.0239 7.25049C56.5642 7.25049 53.2532 9.16942 51.3115 12.4415V0H45.2656V20.4019C45.2656 29.0758 50.4436 34.9767 59.363 34.9767C66.6999 34.9767 73.5352 29.7857 73.5352 20.9713C73.5245 13.5064 69.008 7.25049 61.0239 7.25049ZM59.299 29.0758C54.409 29.0758 51.603 25.5929 51.603 21.1118C51.603 16.5641 54.3344 12.8667 59.228 12.8667C63.9045 12.8667 66.8528 16.5641 66.8528 21.1118C66.8492 25.5929 64.189 29.0758 59.299 29.0758Z" fill="#6E3EFF"/>
<path d="M90.876 7.25C83.5394 7.25 76.7041 12.441 76.7041 21.2555C76.7041 28.7203 81.2349 34.9621 89.2227 34.9621C93.6819 34.9621 96.9894 33.0432 98.9319 29.7712V34.6915H104.978V21.8248C104.974 13.1509 99.796 7.25 90.876 7.25ZM90.876 29.36C86.0577 29.36 83.4077 25.8032 83.4077 21.2555C83.4077 16.7779 86.0719 13.1509 90.9619 13.1509C95.8519 13.1509 98.6577 16.6338 98.6577 21.1113C98.6435 25.6627 95.766 29.36 90.876 29.36Z" fill="#6E3EFF"/>
<path d="M130.366 0V12.4415C128.425 9.16942 125.117 7.25049 120.658 7.25049C112.67 7.25049 108.14 13.5064 108.14 20.9572C108.14 29.9158 114.54 34.9626 122.009 34.9626C130.929 34.9626 136.395 29.0617 136.395 20.3879V0.00351454L130.366 0ZM122.382 29.0758C117.492 29.0758 114.829 25.5929 114.829 21.1118C114.829 16.5641 117.78 12.8667 122.454 12.8667C127.347 12.8667 130.079 16.4937 130.079 21.1118C130.071 25.5929 127.272 29.0758 122.382 29.0758Z" fill="#6E3EFF"/>
</g>
</svg>
