<svg width="15" height="15" viewBox="0 0 15 15" fill="none" xmlns="http://www.w3.org/2000/svg">
<g clip-path="url(#clip0_3_283)">
<path fill-rule="evenodd" clip-rule="evenodd" d="M0 6.66667C0 5.28596 1.11929 4.16667 2.5 4.16667H12.5C13.8807 4.16667 15 5.28596 15 6.66667V8.33333C15 12.0153 12.0153 15 8.33333 15H6.66667C2.98477 15 0 12.0153 0 8.33333V6.66667ZM11.6667 7.91667C11.6667 8.607 11.107 9.16667 10.4167 9.16667C9.72633 9.16667 9.16667 8.607 9.16667 7.91667C9.16667 7.22631 9.72633 6.66667 10.4167 6.66667C11.107 6.66667 11.6667 7.22631 11.6667 7.91667ZM4.58333 9.16667C5.27369 9.16667 5.83333 8.607 5.83333 7.91667C5.83333 7.22631 5.27369 6.66667 4.58333 6.66667C3.89297 6.66667 3.33333 7.22631 3.33333 7.91667C3.33333 8.607 3.89297 9.16667 4.58333 9.16667Z" fill="white"/>
<mask id="mask0_3_283" style="mask-type:luminance" maskUnits="userSpaceOnUse" x="0" y="4" width="15" height="11">
<path fill-rule="evenodd" clip-rule="evenodd" d="M0 6.66667C0 5.28596 1.11929 4.16667 2.5 4.16667H12.5C13.8807 4.16667 15 5.28596 15 6.66667V8.33333C15 12.0153 12.0153 15 8.33333 15H6.66667C2.98477 15 0 12.0153 0 8.33333V6.66667ZM11.6667 7.91667C11.6667 8.607 11.107 9.16667 10.4167 9.16667C9.72633 9.16667 9.16667 8.607 9.16667 7.91667C9.16667 7.22631 9.72633 6.66667 10.4167 6.66667C11.107 6.66667 11.6667 7.22631 11.6667 7.91667ZM4.58333 9.16667C5.27369 9.16667 5.83333 8.607 5.83333 7.91667C5.83333 7.22631 5.27369 6.66667 4.58333 6.66667C3.89297 6.66667 3.33333 7.22631 3.33333 7.91667C3.33333 8.607 3.89297 9.16667 4.58333 9.16667Z" fill="white"/>
</mask>
<g mask="url(#mask0_3_283)">
<path d="M2.49998 2.5C0.198794 2.5 -1.66669 4.36548 -1.66669 6.66667H1.66665C1.66665 6.20643 2.03975 5.83333 2.49998 5.83333V2.5ZM12.5 2.5H2.49998V5.83333H12.5V2.5ZM16.6666 6.66667C16.6666 4.36548 14.8011 2.5 12.5 2.5V5.83333C12.9602 5.83333 13.3333 6.20643 13.3333 6.66667H16.6666ZM16.6666 8.33333V6.66667H13.3333V8.33333H16.6666ZM8.33331 16.6667C12.9356 16.6667 16.6666 12.9357 16.6666 8.33333H13.3333C13.3333 11.0948 11.0947 13.3333 8.33331 13.3333V16.6667ZM6.66665 16.6667H8.33331V13.3333H6.66665V16.6667ZM-1.66669 8.33333C-1.66669 12.9357 2.06427 16.6667 6.66665 16.6667V13.3333C3.90522 13.3333 1.66665 11.0948 1.66665 8.33333H-1.66669ZM-1.66669 6.66667V8.33333H1.66665V6.66667H-1.66669ZM10.4166 10.8333C12.0275 10.8333 13.3333 9.5275 13.3333 7.91667H9.99998C9.99998 7.68655 10.1866 7.5 10.4166 7.5V10.8333ZM7.49998 7.91667C7.49998 9.5275 8.80581 10.8333 10.4166 10.8333V7.5C10.6467 7.5 10.8333 7.68655 10.8333 7.91667H7.49998ZM10.4166 5C8.80581 5 7.49998 6.30583 7.49998 7.91667H10.8333C10.8333 8.14678 10.6467 8.33333 10.4166 8.33333V5ZM13.3333 7.91667C13.3333 6.30583 12.0275 5 10.4166 5V8.33333C10.1866 8.33333 9.99998 8.14678 9.99998 7.91667H13.3333ZM4.16665 7.91667C4.16665 7.68655 4.3532 7.5 4.58331 7.5V10.8333C6.19415 10.8333 7.49998 9.5275 7.49998 7.91667H4.16665ZM4.58331 8.33333C4.3532 8.33333 4.16665 8.14678 4.16665 7.91667H7.49998C7.49998 6.30583 6.19415 5 4.58331 5V8.33333ZM4.99998 7.91667C4.99998 8.14678 4.81343 8.33333 4.58331 8.33333V5C2.97248 5 1.66665 6.30583 1.66665 7.91667H4.99998ZM4.58331 7.5C4.81343 7.5 4.99998 7.68655 4.99998 7.91667H1.66665C1.66665 9.5275 2.97248 10.8333 4.58331 10.8333V7.5Z" fill="white"/>
</g>
<path d="M10.8334 4.84848C10.8334 5.3924 10.3924 5.83333 9.84852 5.83333H5.15154C4.60762 5.83333 4.16669 5.3924 4.16669 4.84848V4.16667C4.16669 2.32572 5.65907 0.833333 7.50002 0.833332C9.34094 0.833332 10.8334 2.32572 10.8334 4.16667V4.84848Z" stroke="white" stroke-width="2" stroke-linejoin="round"/>
</g>
<defs>
<clipPath id="clip0_3_283">
<rect width="15" height="15" fill="white"/>
</clipPath>
</defs>
</svg>
