<svg width="15" height="15" viewBox="0 0 15 15" fill="none" xmlns="http://www.w3.org/2000/svg">
<g clip-path="url(#clip0_3_280)">
<path fill-rule="evenodd" clip-rule="evenodd" d="M0 4.16667C0 1.86548 1.86548 0 4.16667 0H10.8333C13.1345 0 15 1.86548 15 4.16667V10.8333C15 12.3345 14.2061 13.6503 13.0153 14.3837C11.7971 12.2367 9.781 10.8333 7.5 10.8333C5.21901 10.8333 3.2029 12.2367 1.98472 14.3837C0.793883 13.6503 0 12.3345 0 10.8333V4.16667ZM10.4167 6.25C10.4167 7.86083 9.11083 9.16667 7.5 9.16667C5.88917 9.16667 4.58333 7.86083 4.58333 6.25C4.58333 4.63917 5.88917 3.33333 7.5 3.33333C9.11083 3.33333 10.4167 4.63917 10.4167 6.25Z" fill="white"/>
</g>
<defs>
<clipPath id="clip0_3_280">
<rect width="15" height="15" fill="white"/>
</clipPath>
</defs>
</svg>
